/* XPM */
static char * kasteroids_xpm[] = {
"32 32 44 1",
" 	c #000000000000",
".	c #104010400820",
"X	c #4103410338E3",
"o	c #410341034103",
"O	c #208120812081",
"+	c #79E779E771C6",
"@	c #A699A2899658",
"#	c #8617820779E7",
"$	c #69A669A66185",
"%	c #492449244924",
"&	c #082008200820",
"*	c #B6DAB2CAA699",
"=	c #A699A2899E79",
"-	c #71C671C669A6",
";	c #596559655965",
":	c #965892488617",
">	c #30C230C228A2",
",	c #492449244103",
"<	c #79E779E769A6",
"1	c #514451444924",
"2	c #AEBAAAAA9E79",
"3	c #38E338E330C2",
"4	c #104010401040",
"5	c #618561856185",
"6	c #8E388A288617",
"7	c #208120811861",
"8	c #618561855965",
"9	c #BEFBBAEAAEBA",
"0	c #9E799A699658",
"q	c #596559655144",
"w	c #186118611861",
"e	c #8617820771C6",
"r	c #965892488E38",
"t	c #9E799A698E38",
"y	c #B6DAB2CAAEBA",
"u	c #C71BC30BB6DA",
"i	c #38E338E338E3",
"p	c #AEBAAAAAA699",
"a	c #BEFBBAEAB6DA",
"s	c #28A228A22081",
"d	c #514451445144",
"f	c #8E388A2879E7",
"g	c #28A228A228A2",
"h	c #30C230C230C2",
"            .XXoOO              ",
"            .XXoOO              ",
"           +@##@@@$$%&&         ",
"          $$*##=--;;:$$>        ",
"          ,,<11+##--@**233      ",
"       4--+++oo+$$556==@++      ",
"       788$$;$$+--$$922066qq7   ",
"     &&woo##e--:66##9**===**9   ",
"    &>>w++66666rrrtt999*99999,, ",
"    www>--@@@--#tt**999y9999u**4",
"    4wio++22tqqt00**y**0pp**uyy3",
"    4wi+++22tqqt00**y**0pp**uyy3",
"    4ii+66@@+$$r@@ppypp@**uuuaa<",
"  &&www+++tt6##:==22*99@==999998",
"  &&wi++--##:tt6**22@22p@@yy999%",
"  wwwi++--11-@@=9999rtty@@22u998",
"  wwwi+i$$,,,===9999ett222@@9pp8",
"  wwww+i11oo1##@22yye22@2266y99s",
"  44w +X1111o<<6pp226**0ttrry@@ ",
"  &&w w11111d++#====r**@##00*++ ",
"    www188%%8##ftt@@:@@*##@@2qq ",
"    wOOd88gg866ttt22:@@*00@@033 ",
"    wOOd88gg866ttt22:@@*00@@033 ",
"  &&wOO,;;OO866#rr**=00*@@22tss ",
"  &&www,%%OOo--#ee@@*00@::::6ss ",
"  &&wwwwXX33%11---##=tt@0066q   ",
"    wwwwwwhh311$55--+##+--55    ",
"    &wwwwwOOi>>,qq$$$++#++ss    ",
"     wwwggoo8$$%++$$#tt6XX      ",
"     44wOOhh3oo,11%%-::X        ",
"       wwwwwwhhoOO773XX         ",
"        hhgg      &&w&&         "};
