/* XPM */
/* Drawn  by Nico Shirwing for the K Desktop Environment */
/* See http://www.kde.org */
static char*kasteroids[]={
"32 32 15 1",
"# c #000000",
"f c #c0c0c0",
"j c #ffffff",
"a c #808080",
"e c #585858",
"d c #a0a0a4",
"l c #000080",
"m c #0000c0",
"g c #ff0000",
"k c #0000ff",
"h c #ffff00",
"b c #ffffc0",
"i c #ffa858",
"c c #ffdca8",
". c None",
"...####....###..................",
"..#aaaa#...#bc#.................",
".#adefda#..#cgh#................",
"#aefdaede#..#hgi#...............",
"#afeadfee#...#ii#...............",
"#aefefede#....###...............",
".#aeddde#.......................",
"..#eeeee#.........###...........",
"...#####..........#bc#..........",
"..................#cgh#.........",
"...................#hgi#........",
"###.................#ii#........",
"#bc#.................###........",
"#cgh#...................###.....",
".#hgi#..................#fj#....",
"..#ii#...........####...#afj#...",
"...###..........#jjjj#...#afj#..",
"...............#jffffj#.#j#afj#.",
".......###.....#ffffffj#jff#afj#",
".......#bc#....#dffkkkfj#ffa#a##",
".......#cgh#...#aff#lmkfj#a#.##.",
"........#hgi#...#af#llmkfj#.....",
".........#ii#....#af#llmkfj#....",
"..........###.....#af#llmkfj#...",
".............###.#j#af#ll#fa#...",
".............#fj#jff#af##fa##...",
".............#afj#ffa#affa#fa#..",
"..............#afj#a#.#aa#fj#...",
"...............#afj#...###a#....",
"................#afj#.....#.....",
".................#a##...........",
"..................##............"};

