/* XPM */
static char *kasteroids[] = {
/* width height num_colors chars_per_pixel */
"    32    32        7            1",
/* colors */
". c #000000",
"# c #303030",
"a c #595959",
"b c #808080",
"c c #a0a0a0",
"d c #c3c3c3",
"e c None",
/* pixels */
"eeeeeeeeeeeeeeeeeeeeeeeeeeeeeeee",
"eeeeeeeeeeee#####...eeeeeeeeeeee",
"eeeeeeeee...bbcccaaa...eeeeeeeee",
"eeeeeeee.aacbbcbbaabaa#.eeeeeeee",
"eeeeeee..aabaabbbbbcccc##eeeeeee",
"eeeeee.bbbbb##baaaabcccbb.eeeeee",
"eeeee.#aaaaaaabbbaadcccbbaa#eeee",
"eeeee..##bbbbbbbbbbdcccccccc.eee",
"eeee.#.bbbbbbbccccddddccdddca.ee",
"eee...#bbcccbbbccccdddddddddcc.e",
"eee..##bbcccaacccccccccccccddc#e",
"eee..#bbbcccaacccccdcccccccddd#e",
"ee..##bbbccbaacccccdcccccdddddbe",
"ee....bbbccbbbbcccccddcccdddddae",
"ee..#bbbbbbbccbdcccccccccdddddae",
"ee..#bbbbaabcccdddccccdccccdddae",
"ee..#b#aaaaacccddddbcccccccdccae",
"ee...b#aa##abbcccddbcccccbbddd#e",
"ee...b#aaaa#bbbccccbcccccccdcc.e",
"eee...aaaaaabbbccccccccbbcccbb.e",
"eee...aaaaaabbbccccbcccbbcccaa.e",
"eee.##aaa##abbcccccbcccccccc##ee",
"eee.##aaa##abbcccccbcccccccc##ee",
"eee.##aaa##abbbccccccccccccc##ee",
"eeee..aaa###bbbbbccccccbbbbb##ee",
"eeeee..####aaabbbbbccccccbba.eee",
"eeeeee...###aaaaabbbbbbbbaa.eeee",
"eeeeeee..#####aaaaaabbbbb##eeeee",
"eeeeeeee###aaaabbaabccb##eeeeeee",
"eeeeeeeee#####aaaaabbb#eeeeeeeee",
"eeeeeeeeeeee##########eeeeeeeeee",
"eeeeeeeeeeeeeeeeeeeeeeeeeeeeeeee"
};
