/* XPM */
static char *kpoker[] = {
/* width height num_colors chars_per_pixel */
"    32    32       21            1",
/* colors */
". c #000000",
"# c #800000",
"a c #c0c0c0",
"b c #ffffd4",
"c c #ffffb1",
"d c #ffff6b",
"e c #fefe00",
"f c #dcdc00",
"g c #969600",
"h c #737300",
"i c #f2f2f2",
"j c #e6e6e6",
"k c #dadada",
"l c #cecece",
"m c #b6b6b6",
"n c #aaaaaa",
"o c #9e9e9e",
"p c #868686",
"q c #808080",
"r c #ff0000",
"s c #ffffff",
/* pixels */
"########......##################",
"######..nallan..################",
"#####.niiiiiiiin....############",
"#####.niiiiiiiin.bdf..##########",
"#####.oonallanoo.bbbbf.#########",
"###......ooooomp.bbbbf.#########",
"#..fdbbdf..kkkoo.bdfgg.#########",
".fbbbbbbbbf.oomp.ggg...#########",
".fbbbbbbbbf.kkoo.f..ss.#########",
".ggfdbbdfgg.oomp..sssss.########",
".cegggggggh.kk..ssssrsss.#######",
".ggffffffgg...sssssrrrsss.######",
".ceggggggg..ssssssssssssss.#####",
".ggfffff..sssssssssssssssss.####",
".ceggg..ssssssssssssssssssss.###",
"#..f..sssssssssssssssssssrsss.##",
"##..ssssssssssssrsssssssrrrsss.#",
"..ssssrssssssssrrrssssssssssssq.",
".qsssrrrssssssssssssssssssssqqj.",
".sqsssssssssssssssssssssssqqjjq.",
".qsqssssssssssssssssssssqqjjqqj.",
".sqsqsssssssssssssssssqqjjqqjj..",
"#.sqsqsssssrssssssssqqjjqqjj..##",
"##.sqsqsssrrrsssssqqjjqqjj..####",
"###.sqsqssssssssqqjjqqjj..######",
"####.sqsqsssssqqjjqqjj..########",
"#####.sqsqssqqjjqqjj..##########",
"######.sqsqqjjqqjj..############",
"#######.sqsaqqjj..##############",
"########.sqqjj..################",
"#########.sa..##################",
"##########..####################"
};
SIMPLE  =                    T                                                  BITPIX  =                    8                                                  NAXIS   =                    2                                                  NAXIS1  =                   32                                                  NAXIS2  =                   32                                                  HISTORY Written by XV 3.10a                                                     END                                                                                                                                                                                                                                                                                                                                                                                                                                                                                                                                                                                                                                                                                                                                                                                                                                                                                                                                                                                                                                                                                                                                                                                                                                                                                                                                                                                                                                                                                                                                                                                                                                                                                                                                                                                                                                                                                                                                                                                                                                                                                                                                                                                                                                                                                                                                                                                                                                                                                             ,,,,,,,,,,
