/* XPM */
static char * kabalone_xpm[] = {
/* width height num_colors chars_per_pixel */
"52 52 12 1",
/* colors */
" 	c None",
".	c #494941",
"X	c #d7dbc3",
"o	c #c3cbb2",
"O	c #750000",
"+	c #9e0000",
"@	c #757969",
"#	c #59594d",
"$	c #ff7575",
"%	c #9e9e00",
"&	c #757500",
"*	c #ffff75",
/* pixels */
"                                                    ",
"            ..XXXXXXXXXXXXXXXXXXXXXXXXX             ",
"           ..oooooooooooooooooooooooooXX            ",
"           .O+++o@+++o@+++#@O+++oO+++oXX            ",
"          ..O+$$##+$$#o+$$#oO+$$#O+$$#oXX           ",
"          ..O+$$##+$$#o+$$#oO+$$#O+$$#oXX           ",
"         ..oO+++o@+++o@+++o@O+++oO+++o@#XX          ",
"         ..@@####@####@@###@@####@####@@XX          ",
"        ..+++o@+++o@O+++oO+++o@+++o@O+++#XX         ",
"        ..+$$@o++$$oO+$$@O+$$@o+$$#oO+$$oXX         ",
"       ..#+$$#o++$$oO+$$#O+$$#o+$$#oO+$$#oXX        ",
"       ..@+++o@+++o@O+++oO+++o@+++o@O+++o@XX        ",
"      ..o@@###@@###@@####@####@@###@@###@@#XX       ",
"      .o#oo@@#ooo@+++o@+++o@O+++o@#ooo@@#oo#X       ",
"     ..#o##o#@o#@#+$$@o+$$#oO+$$o#@o#@o#o##oXX      ",
"     .o#o@@##o@@##+$$#o+$$#oO+$$##o@@##o@@#o#X      ",
"    ..o@oooo@#ooo@+++o@+++o@O+++o@#ooo@#ooo@#XX     ",
"    .o@@###@@####@####@@###@@####@####@@###@@#X     ",
"   ..#ooo@@#oo@@#oo@@#ooo@#ooo@@#oo@@#oo@@#oooXX    ",
"   .#@o#@o#o#@o#o##o#@o#@#@o#@o#o##o#@o#o#@o#@oX    ",
"  ..#o@@##o@@#o#o@#o#o@@##o@@#o#o@#o#o@@##o@@#oXX   ",
"  .o@#ooo@#ooo@@ooo@@#ooo@#ooo@@ooo@@#ooo@#ooo@#X   ",
" ..o@####@@###@@###@@####@####@@###@@###@@####@#XX  ",
" .o#oo@@#oo@@#ooo@##oo@@#oo@@#ooo@#ooo@@#oo@@#oo#X  ",
"..#o##o#o##o#@o#@##o#@o#o##o#@o#o#@o#@o#o##o#o##oXX ",
".#o@@#o#o@@##o@@##o@@#o#o@#o#o@@##o@@##o@@#o#o@@#oX ",
" .#ooo@@oooo@#ooo@#ooo@@ooo@@#ooo@#ooo@#ooo@@ooooX  ",
" .o###@@###@@####@####@@###@@####@####@@###@@####X  ",
"  .o@#ooo@@#oo@@#oo@@#ooo@#ooo@@#oo@@#oo@@#ooo@#X   ",
"  .o#@o#@o#o#@o#o##o#@o#@#@o#@o#o##o#@o#o#@o#@o#X   ",
"   .#o@@##o@@#o#o@#o#o@@##o@@#o#o@#o#o@@##o@@#oX    ",
"   .o#ooo@#ooo@@ooo@@#ooo@#ooo@@ooo@@#ooo@#ooo#X    ",
"    .####@@###@@###@@####@####@@###@@###@@####X     ",
"    .o@@#oo@@#ooo@%%%o@%%%o@&%%%o@#ooo@@#oo@@#X     ",
"     .o#o##o#@o#@#%**@o%**#o&%**o#@o#@o#o##o#X      ",
"     .o#o@@##o@@##%**#o%**#o&%**##o@@##o@@#o#X      ",
"      .ooooo@#ooo@%%%o@%%%o@&%%%o@#ooo@#ooo#X       ",
"      ..###@@####@####@@###@@####@####@@###XX       ",
"       .o@%%%o@%%%o@@%%%o@%%%o@%%%o@@%%%@@#X        ",
"       ..@%%%@o%%%#o&%%%@&%%%@o%%%#o&%%%o@XX        ",
"        .#%**#o%%**o&%**#&%**#o%**#o&%**#oX         ",
"        ..%**o@%%**@&%**o&%**o@%**o@&%**oXX         ",
"         .&&&#@&&&#@&&&##&&&##@&&&#@&&&##X          ",
"         ..@@%%%o@%%%o@%%%o@@%%%o@%%%o@@XX          ",
"          .o&%%%@#%%%@o%%%#o&%%%o&%%%@o#X           ",
"          ..&%**##%**#o%**#o&%**#&%**#oXX           ",
"           .&%**o@%**o@%**#@&%**o&%**o#X            ",
"           .&&&o#@&&&#@&&&o@&&&o#&&&o#XX            ",
"            .#########################X             ",
"            ...........................             ",
"                                                    ",
"                                                    "};
