/* XPM */
/* Drawn  by Nico Shirwing for the K Desktop Environment */
/* See http://www.kde.org */
static char*kabalone[]={
"32 32 11 1",
"# c #000000",
"b c #c0c0c0",
"a c #ffffff",
"c c #808080",
"d c #c00000",
"e c #ff0000",
"f c #ffc0c0",
"g c #c05800",
"h c #ffa858",
"i c #ffdca8",
". c None",
".......##################.......",
".......#aaaaaaaaaaaaaaaa#.......",
"......#abbbbbbbbbbbbbbbbc#......",
"......#abccccccccccccccbc#......",
".....#abcbbbbbbbbbbbbbbabc#.....",
".....#abcbddbbbddbbbddbabc#.....",
"....#abcbdeeebdeeebdeeebabc#....",
"....#abcbdeffbdeffbdeffbabc#....",
"...#abcbbbefbbbefbbbefbbbabc#...",
"...#abcbbbbbbbbbbbbbbbbbbabc#...",
"..#abcbbbbbbbbbbbddbbbddbbabc#..",
"..#abcbbbbbbbbbbdeeebdeeebabc#..",
".#abcbbbbbbbbbbbdeffbdeffbbabc#.",
".#abcbbbbbbbbggbbefbbbefbbbabc#.",
"#abcbbbbbbbbghhhbbbbbbbbbbbbabc#",
"#abcbbbbbbbbghiibbbbbbbbddbbabc#",
"#abcbbbbbbbbbhibbbbbbbbdeeebabc#",
"#abcbbbbbbbbbbbbbbbbbbbdeffbabc#",
".#abcbbbggbbbbbbbbggbbbbefbabc#.",
".#abcbbghhhbbbbbbghhhbbbbbbabc#.",
"..#abcbghiibbbbbbghiibbbbbabc#..",
"..#abcbbhibbbbbbbbhibbbbbbabc#..",
"...#abcbbbbbbbbbbbbbbbbbbabc#...",
"...#abcbbbggbbbggbbbggbbbabc#...",
"....#abcbghhhbghhhbghhhbabc#....",
"....#abcbghiibghiibghiibabc#....",
".....#abcbhibbbhibbbhibabc#.....",
".....#abcbbbbbbbbbbbbbbabc#.....",
"......#abaaaaaaaaaaaaaabc#......",
"......#abbbbbbbbbbbbbbbbc#......",
".......#cccccccccccccccc#.......",
".......##################......."};

