/* XPM */
static char * compuSnake_xpm[] = {
"224 16 7 1",
" 	s None	c None",
".	c gold3",
"X	c yellow1",
"o	c VioletRed4",
"O	c VioletRed1",
"+	c blue",
"@	c black",
"  ..XX........      oooooooo                                        ........      ..XX........                                                                    ..XX........    ..XX........                    ..XX........  ",
"  ..XX........      oooooooo                                        ........      ..XX........                                                                    ..XX........    ..XX........                    ..XX........  ",
"  ..XX........    ....XX......    ..oo..oo............oo..oo..    ....XX......    ..XX........  ..............    ..........................        ................XX........    ..XX..........................  ..XX........  ",
"  ..XX........    ....XX......    ..oo..oo............oo..oo..    ....XX......    ..XX........  ..............    ..........................        ................XX........    ..XX..........................  ..XX........  ",
"  ..XX........    ooOOoooooooo  oo..OOXXOOXXXXXXXXXXXXOOXXOO..oo  ..++....++..    ..XX........  XXXXXXXXX@++........++@XXXXXXXXXXXXXXXXXXX....    ....XXXXXXXXXXXXXXXX........    ..XX......XXXXXXXXXXXXXXXXXXXX  ..XX........  ",
"  ..XX........    ooOOoooooooo  oo..OOXXOOXXXXXXXXXXXXOOXXOO..oo  ..++....++..    ..XX........  XXXXXXXXX@++........++@XXXXXXXXXXXXXXXXXXX....    ....XXXXXXXXXXXXXXXX........    ..XX......XXXXXXXXXXXXXXXXXXXX  ..XX........  ",
"  ooOOoooooooo    ..XX........  ooXXoo..oo............oo..ooXXoo  ..@@....@@..    ..XX........  ..................XX..........................    ..XXXX......................    ..XX..XX......................  ..XX........  ",
"  ooOOoooooooo    ..XX........  ooXXoo..oo............oo..ooXXoo  ..XX........    ..XX........  ..................XX..........................    ..XXXX......................    ..XX..XX......................  ..XX........  ",
"  ..XX........    ooOOoooooooo  oo..oo..oo............oo..oo..oo  ..XX........    ..XX........  ............XX........................XX......    ..XX........................    ..XX..........................  ..XX........  ",
"  ..XX........    ooOOoooooooo  oo..oo..oo............oo..oo..oo  ..XX........    ..@@....@@..  ............XX........................XX......    ..XX........................    ..XX..........................  ..XX........  ",
"  ooOOoooooooo    ..XX........  oo..oo..oo............oo..oo..oo  ..XX........    ..++....++..  .........@++........++@.......................    ..XX........................    ..............................  ..XX........  ",
"  ooOOoooooooo    ..XX........  oo..oo..oo............oo..oo..oo  ..XX........    ..++....++..  .........@++........++@.......................    ..XX........................    ..............................  ..XX........  ",
"  ....XX......    ..XX........    ..oo..oo............oo..oo..    ..XX........    ....XX......  ..............    ..................XX........    ..XX......................        ............................  ..XX........  ",
"  ....XX......    ..XX........    ..oo..oo............oo..oo..    ..XX........    ....XX......  ..............    ..................XX........    ..XX......................        ............................  ..XX........  ",
"    oooooooo      ..XX........                                    ..XX........      ........                                      ..XX........    ..XX..........                                                  ..XX........  ",
"    oooooooo      ..XX........                                    ..XX........      ........                                      ..XX........    ..XX..........                                                  ..XX........  "};
