/* XPM */
/* Drawn  by Nico Shirwing for the K Desktop Environment */
/* See http://www.kde.org */
static char*ktetris[]={
"32 32 17 1",
"# c #000000",
"d c #c0c0c0",
"a c #ffffff",
"e c #808080",
"b c #585858",
"i c #800000",
"f c #008000",
"o c #000080",
"c c #00c000",
"h c #ff0000",
"m c #0000ff",
"k c #c0c0ff",
"n c #c05800",
"g c #ffa858",
"j c #ffdca8",
"l c #004040",
". c None",
".##############################.",
"#aaa#bbbbbb#c#bbbbbbbbbbbbb#aaa#",
"#ade#bbbbb#cfc#bbbbbbbbbbbb#ade#",
"#ade#bbbb#cfffc#bbbbbbbbbbb#ade#",
"#ade#bbb#c#fff#c#bbbb##bbbb#ade#",
"#ade#bb#cfc#f#cfc#bb#gg#bbb#ade#",
"#ade#b#cfffc#cfffc##ghhg#bb#ade#",
"#ade###ffff#g#ffff##hhhhg#b#ade#",
"#ade#cc#ff#ghg#ff#gg#hhh##b#ade#",
"#ad#cffc##ghhhg##ghhg#h#i#b#ade#",
"#a#cffff#j#hhhh##hhhhg#ii#b#ade#",
"#a##fff#jgj#hh#gg#hhh#k##bb#ade#",
"#a#l#f#jgggj##ghhg#h#kmk#bb#ade#",
"#a#ll#jggggg##hhhhg#kmmmk#b#ade#",
"#ad##j#gggg#jj#hhh#g#mmmmk##ade#",
"#ad#jgj#gg#jggj#h#ghg#mmm#k#ade#",
"#a#jgggj##jggggj#ghhhg#m#kmk#de#",
"#a#ggggg##ggggg#k#hhhh##kmmmk#e#",
"#a##ggg#jj#ggg#kmk#hh#kk#mmm##e#",
"#a#n#g#jggj#g#kmmmk##kmmk#m#o#e#",
"#a#nn#jggggj#kmmmmm##mmmmk#oo#e#",
"#ad#n##gggg###mmmm#kk#mmm##o#de#",
"#ade##n#gg#n#o#mm#kmmk#m#o##ade#",
"#ade##nn##nn#oo##kmmmmk#oo##ade#",
"#ade#b#nn#n#b#oo#mmmmm##o#b#ade#",
"#ade#bb#n##bbb#o##mmm#o##bb#ade#",
"#ade#bbb##bbbbb##o#m#oo#bbb#ade#",
"#ade#############oo#oo######ade#",
"#adaaaaaaaaaaaaaa#o#o#aaaaaaade#",
"#adddddddddddddddd###ddddddddde#",
"#eeeeeeeeeeeeeeeeee#eeeeeeeeeee#",
".##############################."};

