/* XPM */
/* Drawn  by Nico Schwiring and Mark Donohoe for the K Desktop Environment */
/* See http://www.kde.org */
static char*ktetris[]={
"16 16 12 1",
"# c #000000",
"j c #000080",
"g c #0000ff",
"d c #ff0000",
"e c #400000",
"b c #008000",
"a c #00c000",
"i c #bebeff",
"h c #be5800",
"c c #ffa85a",
"f c #ffdca8",
". c None",
".....##.........",
"....#aa#........",
"...#abba#.#.....",
"..#abbaba#c#....",
".#abbcdbbcdde...",
"#abbfdddcdde#...",
"##bfcfddddcg#...",
".#fcccfddcggg#..",
"#fcccfcfcddggg#.",
"#hcccccigddggj#.",
"#hhcchjgggggjj#.",
".#hhhhjjgggjj#..",
"..#hh##jjgjj#...",
"...##..#jjj#....",
"........#j#.....",
".........#......"};

